HIERARCHY
ROOT SpineBase
{
  OFFSET 0.000000 0.000000 0.000000
  CHANNELS 6 Xposition Yposition Zposition Zrotation Xrotation Yrotation
  JOINT SpineMid
  {
    OFFSET -0.000000 26.151511 0.000000
    CHANNELS 3 Zrotation Xrotation Yrotation
    JOINT SpineShoulder
    {
      OFFSET -0.042874 19.532881 -0.749035
      CHANNELS 3 Zrotation Xrotation Yrotation
      JOINT Neck
      {
        OFFSET -0.037328 6.477528 -0.540776
        CHANNELS 3 Zrotation Xrotation Yrotation
        JOINT Head
        {
          OFFSET 3.156374 10.677096 0.595867
          CHANNELS 3 Zrotation Xrotation Yrotation
          End Site
          {
            OFFSET 0 0 0
          }
        }
      }
      JOINT ShoulderLeft
      {
        OFFSET -11.338363 -1.926987 -6.749416
        CHANNELS 3 Zrotation Xrotation Yrotation
        JOINT ElbowLeft
        {
          OFFSET -3.816222 -22.428227 -2.822794
          CHANNELS 3 Zrotation Xrotation Yrotation
          JOINT WristLeft
          {
            OFFSET -2.236732 -21.275092 -6.050964
            CHANNELS 3 Zrotation Xrotation Yrotation
            JOINT HandLeft
            {
              OFFSET -0.238639 -5.050938 -1.080866
              CHANNELS 3 Zrotation Xrotation Yrotation
              JOINT HandTipLeft
              {
                OFFSET 3.088087 -5.179695 -0.780888
                CHANNELS 3 Zrotation Xrotation Yrotation
                End Site
                {
                  OFFSET 0 0 0
                }
              }
              JOINT ThumbLeft
              {
                OFFSET -2.358127 0.515781 -2.684703
                CHANNELS 3 Zrotation Xrotation Yrotation
                End Site
                {
                  OFFSET 0 0 0
                }
              }
            }
          }
        }
      }
      JOINT ShoulderRight
      {
        OFFSET 13.108326 -4.181166 5.547629
        CHANNELS 3 Zrotation Xrotation Yrotation
        JOINT ElbowRight
        {
          OFFSET 1.844384 -25.672915 1.007078
          CHANNELS 3 Zrotation Xrotation Yrotation
          JOINT WristRight
          {
            OFFSET 3.214577 -18.623928 -4.324403
            CHANNELS 3 Zrotation Xrotation Yrotation
            JOINT HandRight
            {
              OFFSET 0.964809 -4.052659 -2.239854
              CHANNELS 3 Zrotation Xrotation Yrotation
              JOINT HandTipRight
              {
                OFFSET 0.626219 -4.097067 -2.141390
                CHANNELS 3 Zrotation Xrotation Yrotation
                End Site
                {
                  OFFSET 0 0 0
                }
              }
              JOINT ThumbRight
              {
                OFFSET 0.936235 -0.679870 -4.030783
                CHANNELS 3 Zrotation Xrotation Yrotation
                End Site
                {
                  OFFSET 0 0 0
                }
              }
            }
          }
        }
      }
    }
  }
  JOINT HipLeft
  {
    OFFSET -4.463235 1.249764 -5.275430
    CHANNELS 3 Zrotation Xrotation Yrotation
    JOINT KneeLeft
    {
      OFFSET -7.805106 -33.127236 1.151318
      CHANNELS 3 Zrotation Xrotation Yrotation
      JOINT AnkleLeft
      {
        OFFSET -3.120363 -31.790750 7.572572
        CHANNELS 3 Zrotation Xrotation Yrotation
        JOINT FootLeft
        {
          OFFSET 3.208861 -4.965043 1.690737
          CHANNELS 3 Zrotation Xrotation Yrotation
          End Site
          {
            OFFSET 0 0 0
          }
        }
      }
    }
  }
  JOINT HipRight
  {
    OFFSET 4.070073 0.208163 -0.826003
    CHANNELS 3 Zrotation Xrotation Yrotation
    JOINT KneeRight
    {
      OFFSET -1.102458 -28.832244 3.135443
      CHANNELS 3 Zrotation Xrotation Yrotation
      JOINT AnkleRight
      {
        OFFSET -5.993209 -37.195207 9.148046
        CHANNELS 3 Zrotation Xrotation Yrotation
        JOINT FootRight
        {
          OFFSET -4.344935 -5.741328 -1.501047
          CHANNELS 3 Zrotation Xrotation Yrotation
          End Site
          {
            OFFSET 0 0 0
          }
        }
      }
    }
  }
}
MOTION
Frames: 9
Frame Time: 0.033333
17.260460 68.793659 371.748158 -15.470338 -17.481625 -35.368392 0.718073 -3.012966 32.103321 0.329094 -0.327756 -0.871791 7.776978 21.185640 1.767971 0.000000 0.000000 0.000000 0.504046 4.329175 6.658298 10.376115 0.561937 -3.078524 5.585091 -3.610489 -3.130382 -38.056363 7.294332 8.857071 0.000000 0.000000 0.000000 0.000000 0.000000 0.000000 28.026137 14.096186 -5.217999 178.582036 43.992213 -168.873790 -24.412476 12.128601 -14.027600 7.538255 -1.773861 -4.640745 0.000000 0.000000 0.000000 0.000000 0.000000 0.000000 10.377949 26.615189 29.619483 -7.159304 5.936910 -0.809107 -33.798472 45.081529 53.034882 0.000000 0.000000 0.000000 3.583950 24.575260 32.241683 3.669452 4.475184 0.056654 26.182615 15.929520 -33.064272 0.000000 0.000000 0.000000
17.032320 68.662694 371.772698 -15.656282 -18.590642 -35.315933 0.931805 -2.324980 31.856141 0.589382 -0.156641 -0.857042 4.024050 23.401180 2.741053 0.000000 0.000000 0.000000 0.260945 4.138552 6.670650 9.346225 0.668225 -2.807924 7.959617 -1.690199 -4.164020 -36.908121 4.274577 5.483678 0.000000 0.000000 0.000000 0.000000 0.000000 0.000000 25.831938 10.955346 -4.839586 -179.158126 40.378128 -170.695295 -25.515222 9.904991 -14.643429 7.806951 2.278169 -3.318311 0.000000 0.000000 0.000000 0.000000 0.000000 0.000000 10.848390 27.554664 29.054527 -7.983689 6.955854 -0.998329 -31.692803 37.258136 40.103399 0.000000 0.000000 0.000000 3.664394 25.218222 31.890589 3.608509 5.211332 -0.042024 14.532814 20.866308 -30.502999 0.000000 0.000000 0.000000
17.021682 68.440961 371.792330 -15.385114 -19.369471 -33.407249 0.784038 -1.739102 29.938404 0.876795 0.030427 -0.838333 1.443794 24.567866 3.338887 0.000000 0.000000 0.000000 0.449467 3.857398 6.423437 8.093244 0.631566 -2.473662 10.783740 1.708400 -5.480279 -37.708007 1.074185 3.767403 0.000000 0.000000 0.000000 0.000000 0.000000 0.000000 26.052016 11.070259 -5.014529 -177.117735 39.415480 -175.512867 -26.444668 6.335258 -15.167357 10.901839 6.720790 0.624798 0.000000 0.000000 0.000000 0.000000 0.000000 0.000000 11.324390 27.886129 26.834334 -8.345137 7.214259 -1.051402 -33.323048 33.723973 35.276581 0.000000 0.000000 0.000000 4.095008 24.516926 29.766390 4.210975 6.500326 -0.134168 3.630842 16.984506 -21.352977 0.000000 0.000000 0.000000
17.037296 68.225632 371.753552 -15.034404 -19.585625 -30.293759 0.610493 -0.813494 26.933290 1.069252 0.211197 -0.795177 -0.175696 23.227491 3.721627 0.000000 0.000000 0.000000 0.769636 3.249304 5.985799 6.826152 0.317455 -2.080951 13.798230 6.439327 -7.080213 -40.643190 -2.865478 2.585922 0.000000 0.000000 0.000000 0.000000 0.000000 0.000000 29.516197 15.368209 -5.976383 -173.335060 40.490904 171.997986 -24.523831 1.267154 -12.935234 12.541250 8.401376 2.841665 0.000000 0.000000 0.000000 0.000000 0.000000 0.000000 12.360736 27.615153 23.463772 -8.488052 7.090729 -1.034221 -25.869032 22.980073 19.931362 0.000000 0.000000 0.000000 5.448592 23.697362 26.364561 4.042772 6.918481 -0.188724 2.313474 14.893492 -18.829947 0.000000 0.000000 0.000000
17.134292 68.037326 371.629983 -14.385357 -19.438333 -25.886257 0.667067 0.121896 22.723351 1.269398 0.426244 -0.728446 -2.250456 20.764398 4.204657 0.000000 0.000000 0.000000 0.912316 2.700060 5.460528 5.367228 -0.180387 -1.586992 15.728596 10.323162 -8.265951 -44.521083 -6.110432 1.529878 0.000000 0.000000 0.000000 0.000000 0.000000 0.000000 30.875337 16.819418 -6.296571 -167.330657 36.647478 156.020058 -19.545054 -7.076134 -8.407454 20.347518 12.357943 10.250498 0.000000 0.000000 0.000000 0.000000 0.000000 0.000000 13.551776 26.825423 18.948474 -8.394664 6.384752 -0.922628 -23.016167 18.901992 15.345231 0.000000 0.000000 0.000000 7.108838 21.822452 21.785254 3.845758 7.831447 -0.324075 4.142008 17.457686 -21.453287 0.000000 0.000000 0.000000
17.382077 67.995337 371.439277 -13.253028 -19.085643 -20.144414 1.002772 0.891177 17.265390 1.401985 0.564790 -0.642615 -4.105191 19.854007 4.139657 0.000000 0.000000 0.000000 0.083850 2.419825 5.116984 4.933904 -0.756406 -1.429818 15.765786 11.840894 -8.396401 -46.530335 -6.933642 1.572839 0.000000 0.000000 0.000000 0.000000 0.000000 0.000000 30.657568 17.309105 -6.222236 -161.906018 30.194427 139.435120 -10.570593 -14.407793 0.319686 18.545544 8.149055 7.230172 0.000000 0.000000 0.000000 0.000000 0.000000 0.000000 14.255372 25.564746 13.427505 -7.612004 4.982368 -0.651744 -20.385596 19.614368 16.244680 0.000000 0.000000 0.000000 8.703947 19.679839 16.097575 3.073489 8.154813 -0.425431 8.390699 23.086295 -27.652547 0.000000 0.000000 0.000000
17.821536 68.178830 371.180297 -11.845479 -18.369875 -13.532225 1.328122 1.448251 11.033128 1.316225 0.796021 -0.528470 -4.255879 18.278131 3.495069 0.000000 0.000000 0.000000 0.869897 1.451815 4.345117 2.706650 0.289642 -0.858314 17.096008 13.201812 -8.856803 -49.004213 -10.109673 -0.843728 0.000000 0.000000 0.000000 0.000000 0.000000 0.000000 29.153236 16.279385 -5.517254 -158.252132 22.988351 126.070620 3.182704 -18.517983 13.975425 9.794562 4.642193 -0.813416 0.000000 0.000000 0.000000 0.000000 0.000000 0.000000 14.885086 23.533811 7.296435 -6.817205 3.983720 -0.442378 -11.333726 6.183607 5.284694 0.000000 0.000000 0.000000 9.731076 17.199721 9.853098 2.433528 7.890659 -0.421218 5.685839 24.912507 -26.589638 0.000000 0.000000 0.000000
18.398951 68.630922 370.857116 -10.382564 -17.499559 -7.557480 1.561078 1.690184 5.443971 1.093813 1.062955 -0.419174 -2.802260 17.346185 2.342391 0.000000 0.000000 0.000000 0.672115 1.010126 3.898344 2.972701 0.611843 -1.083743 15.746466 12.164877 -7.934406 -49.332947 -10.302000 -0.954703 0.000000 0.000000 0.000000 0.000000 0.000000 0.000000 25.865002 13.407609 -4.248223 -153.291854 12.628292 109.926535 17.395080 -17.379346 29.734123 10.915642 1.075126 -1.526459 0.000000 0.000000 0.000000 0.000000 0.000000 0.000000 14.854366 21.419019 1.998006 -5.941161 3.153138 -0.259756 -8.470451 7.469944 7.017638 0.000000 0.000000 0.000000 9.579520 14.771953 4.485549 2.363431 7.679161 -0.386335 8.889270 31.063480 -32.736271 0.000000 0.000000 0.000000
18.958032 68.915903 370.506405 -8.977504 -16.392749 -16.555251 1.029401 2.282716 14.850961 0.845446 1.171495 -0.336942 0.545633 16.843440 0.636248 0.000000 0.000000 0.000000 0.369535 0.556052 3.535921 3.955021 0.885281 -1.514365 14.314697 11.698929 -7.062574 -49.547016 -11.806857 -2.476822 0.000000 0.000000 0.000000 0.000000 0.000000 0.000000 22.418682 10.723468 -3.071165 -150.632446 7.579772 104.248247 23.860961 -16.187133 36.176275 10.544498 0.192544 -2.198123 0.000000 0.000000 0.000000 0.000000 0.000000 0.000000 9.688971 20.927618 12.603453 -5.337351 3.451946 -0.339947 -7.186784 16.218675 13.953437 0.000000 0.000000 0.000000 5.541037 16.677123 14.349147 1.496014 4.887070 -0.216900 16.491991 28.950590 -35.250321 0.000000 0.000000 0.000000
